<svg xmlns="http://www.w3.org/2000/svg" xmlns:xlink="http://www.w3.org/1999/xlink" width="196.691" height="51.596" viewBox="0 0 196.691 51.596">
  <defs>
    <style>
      .cls-1 {
        fill: #a7132c;
      }

      .cls-2 {
        fill: url(#linear-gradient);
      }

      .cls-3 {
        fill: url(#linear-gradient-2);
      }
    </style>
    <linearGradient id="linear-gradient" y1="0.5" x2="1" y2="0.5" gradientUnits="objectBoundingBox">
      <stop offset="0" stop-color="#790a23"/>
      <stop offset="1" stop-color="#da0021"/>
    </linearGradient>
    <linearGradient id="linear-gradient-2" x1="0.5" y1="0.868" x2="0.5" y2="0.001" xlink:href="#linear-gradient"/>
  </defs>
  <g id="Logo" transform="translate(-278 -17.313)">
    <g id="Сгруппировать_440" data-name="Сгруппировать 440" transform="translate(152.83 -501.023)">
      <g id="Сгруппировать_438" data-name="Сгруппировать 438" transform="translate(186.846 524.221)">
        <g id="Сгруппировать_437" data-name="Сгруппировать 437" transform="translate(0 0)">
          <path id="Контур_779" data-name="Контур 779" class="cls-1" d="M186.861,525.406h8.591a13.853,13.853,0,0,1,3.93.5,8.174,8.174,0,0,1,2.807,1.4,5.868,5.868,0,0,1,1.694,2.128,6.329,6.329,0,0,1,.57,2.692,5.778,5.778,0,0,1-.437,2.249,6.179,6.179,0,0,1-1.239,1.887,7.929,7.929,0,0,1-1.925,1.462,10.1,10.1,0,0,1-2.477.953l9.036,12.51h-4.831l-8.626-12.122h-2.923v12.122h-4.17Zm4.17,12.362h2.406a8.287,8.287,0,0,0,2.594-.389,6.341,6.341,0,0,0,2.058-1.1,5.017,5.017,0,0,0,1.364-1.73,5.174,5.174,0,0,0,.49-2.276,5.629,5.629,0,0,0-.392-2.119,4.836,4.836,0,0,0-2.745-2.748,5.558,5.558,0,0,0-2.1-.389h-3.672Z" transform="translate(-186.861 -524.813)"/>
          <path id="Контур_780" data-name="Контур 780" class="cls-1" d="M243.678,551.2a13.63,13.63,0,0,1-9.732-4.006,13.238,13.238,0,0,1-2.121-2.767,13.912,13.912,0,0,1-1.355-3.257,13.527,13.527,0,0,1-.482-3.626,12.994,12.994,0,0,1,.482-3.553,13.393,13.393,0,0,1,1.355-3.183,12.847,12.847,0,0,1,2.121-2.693,13.823,13.823,0,0,1,2.763-2.081,13.6,13.6,0,0,1,3.28-1.342,14.654,14.654,0,0,1,7.379,0,13.6,13.6,0,0,1,3.279,1.342,13.84,13.84,0,0,1,2.763,2.081,12.878,12.878,0,0,1,2.121,2.693,13.414,13.414,0,0,1,1.354,3.183,12.994,12.994,0,0,1,.482,3.553,13.562,13.562,0,0,1-.482,3.617,13.913,13.913,0,0,1-1.354,3.266,13.27,13.27,0,0,1-2.121,2.767,13.676,13.676,0,0,1-9.732,4.006Zm0-1.3a7.519,7.519,0,0,0,3.761-.926,8.119,8.119,0,0,0,2.753-2.572,12.406,12.406,0,0,0,1.694-3.914,20,20,0,0,0,.579-4.95,19.186,19.186,0,0,0-.579-4.859,11.893,11.893,0,0,0-1.694-3.812,7.93,7.93,0,0,0-2.753-2.489,7.768,7.768,0,0,0-3.761-.889,7.933,7.933,0,0,0-3.823.889,7.823,7.823,0,0,0-2.754,2.489,11.733,11.733,0,0,0-1.666,3.812,19.721,19.721,0,0,0-.562,4.859,20.556,20.556,0,0,0,.562,4.95,12.243,12.243,0,0,0,1.666,3.914,8.009,8.009,0,0,0,2.754,2.572A7.678,7.678,0,0,0,243.678,549.908Z" transform="translate(-208.423 -524.221)"/>
          <path id="Контур_781" data-name="Контур 781" class="cls-1" d="M306.625,551.2a13.726,13.726,0,0,1-6.969-1.869,13.6,13.6,0,0,1-2.762-2.137,13.223,13.223,0,0,1-2.121-2.767,13.913,13.913,0,0,1-1.355-3.257,13.526,13.526,0,0,1-.482-3.626,12.993,12.993,0,0,1,.482-3.553,13.394,13.394,0,0,1,1.355-3.183,12.832,12.832,0,0,1,2.121-2.693,13.806,13.806,0,0,1,2.762-2.081,13.6,13.6,0,0,1,3.28-1.342,14.654,14.654,0,0,1,7.379,0,13.607,13.607,0,0,1,3.28,1.342,13.853,13.853,0,0,1,2.763,2.081,12.879,12.879,0,0,1,2.121,2.693,13.435,13.435,0,0,1,1.355,3.183,13.013,13.013,0,0,1,.481,3.553,13.582,13.582,0,0,1-.481,3.617,13.934,13.934,0,0,1-1.355,3.266,13.271,13.271,0,0,1-2.121,2.767,13.677,13.677,0,0,1-9.732,4.006Zm0-1.3a7.519,7.519,0,0,0,3.761-.926,8.119,8.119,0,0,0,2.753-2.572,12.393,12.393,0,0,0,1.694-3.914,20,20,0,0,0,.579-4.95,19.186,19.186,0,0,0-.579-4.859,11.881,11.881,0,0,0-1.694-3.812,7.93,7.93,0,0,0-2.753-2.489,7.767,7.767,0,0,0-3.761-.889,7.933,7.933,0,0,0-3.823.889,7.823,7.823,0,0,0-2.754,2.489,11.732,11.732,0,0,0-1.666,3.812,19.724,19.724,0,0,0-.562,4.859,20.558,20.558,0,0,0,.562,4.95,12.242,12.242,0,0,0,1.666,3.914,8.008,8.008,0,0,0,2.754,2.572A7.678,7.678,0,0,0,306.625,549.908Z" transform="translate(-239.893 -524.221)"/>
          <path id="Контур_782" data-name="Контур 782" class="cls-1" d="M358.022,525.406h4.26l9.661,19.783h.2l9.482-19.783h4.189v25.779H381.62V530.069h-.142L371.3,551.185h-.856l-10.3-20.967h-.285v20.967h-1.836Z" transform="translate(-272.432 -524.813)"/>
          <path id="Контур_783" data-name="Контур 783" class="cls-1" d="M430.557,549.556a6.561,6.561,0,0,0,1.827-.26,5.023,5.023,0,0,0,1.6-.777,4.045,4.045,0,0,0,1.132-1.268,3.428,3.428,0,0,0,.428-1.73,3.808,3.808,0,0,0-.588-2.1,7.256,7.256,0,0,0-1.542-1.694,14.556,14.556,0,0,0-2.183-1.453q-1.23-.675-2.5-1.36t-2.5-1.434a12.583,12.583,0,0,1-2.183-1.666,7.793,7.793,0,0,1-1.542-2.054,5.627,5.627,0,0,1-.588-2.619,7,7,0,0,1,.535-2.748,6.083,6.083,0,0,1,1.568-2.193,7.45,7.45,0,0,1,2.54-1.453,10.471,10.471,0,0,1,3.467-.527,9.063,9.063,0,0,1,5.57,1.536,8.55,8.55,0,0,1,2.95,4.441l-2.139,1.018a10.448,10.448,0,0,0-.954-2.165,6.776,6.776,0,0,0-1.39-1.684,5.83,5.83,0,0,0-1.863-1.083,6.964,6.964,0,0,0-2.371-.38,5.671,5.671,0,0,0-2.058.343,4.441,4.441,0,0,0-1.462.889,3.658,3.658,0,0,0-.874,1.239,3.6,3.6,0,0,0-.294,1.416,3.111,3.111,0,0,0,.606,1.86,7.851,7.851,0,0,0,1.586,1.6,17.117,17.117,0,0,0,2.246,1.452l2.576,1.416q1.31.722,2.575,1.5a13.679,13.679,0,0,1,2.246,1.7,8.269,8.269,0,0,1,1.587,2.027,5,5,0,0,1,.606,2.452,7.382,7.382,0,0,1-.561,2.878,6.513,6.513,0,0,1-1.685,2.35,8.138,8.138,0,0,1-2.789,1.592,11.734,11.734,0,0,1-3.876.583,11.5,11.5,0,0,1-3.19-.407,8.011,8.011,0,0,1-2.487-1.184,7.564,7.564,0,0,1-1.845-1.907,10.977,10.977,0,0,1-1.265-2.553l2.246-.962a8.826,8.826,0,0,0,1.052,2.257,7.1,7.1,0,0,0,1.542,1.693,6.46,6.46,0,0,0,1.961,1.055A7.165,7.165,0,0,0,430.557,549.556Z" transform="translate(-304.152 -524.221)"/>
        </g>
      </g>
      <g id="Сгруппировать_439" data-name="Сгруппировать 439" transform="translate(186.831 556.277)">
        <path id="Контур_784" data-name="Контур 784" class="cls-1" d="M193.328,591.391v7.554h-1.079v-3.367H187.91v3.367h-1.079v-7.554h1.079v3.248h4.338v-3.248Z" transform="translate(-186.831 -589.858)"/>
        <path id="Контур_785" data-name="Контур 785" class="cls-1" d="M205.089,598.443a3.719,3.719,0,0,1-1.442-1.387,3.993,3.993,0,0,1,0-3.95,3.729,3.729,0,0,1,1.442-1.387,4.464,4.464,0,0,1,4.112,0,3.687,3.687,0,0,1,1.435,1.381,4.042,4.042,0,0,1,0,3.962,3.691,3.691,0,0,1-1.435,1.381,4.464,4.464,0,0,1-4.112,0Zm3.555-.837a2.765,2.765,0,0,0,1.047-1.042,3.062,3.062,0,0,0,0-2.967,2.766,2.766,0,0,0-1.047-1.042,2.964,2.964,0,0,0-1.495-.378,3.027,3.027,0,0,0-1.506.378,2.742,2.742,0,0,0-1.057,1.042,3.065,3.065,0,0,0,0,2.967,2.74,2.74,0,0,0,1.057,1.042,3.027,3.027,0,0,0,1.506.378A2.964,2.964,0,0,0,208.645,597.607Z" transform="translate(-194.977 -589.772)"/>
        <path id="Контур_786" data-name="Контур 786" class="cls-1" d="M222.677,592.33h-2.591v-.939h6.249v.939h-2.59v6.615h-1.069Z" transform="translate(-203.457 -589.858)"/>
        <path id="Контур_787" data-name="Контур 787" class="cls-1" d="M240.417,598.006v.939h-5.482v-7.554h5.331v.939h-4.252v2.32H239.8v.917h-3.788v2.439Z" transform="translate(-210.88 -589.858)"/>
        <path id="Контур_788" data-name="Контур 788" class="cls-1" d="M249.4,591.391h1.079v6.615h4.089v.939H249.4Z" transform="translate(-218.11 -589.858)"/>
        <path id="Контур_789" data-name="Контур 789" class="cls-1" d="M268.709,588.326h.939l-3.561,10.166h-.939Z" transform="translate(-225.985 -588.326)"/>
        <path id="Контур_790" data-name="Контур 790" class="cls-1" d="M287.917,591.391v7.554h-1.079v-3.367H282.5v3.367h-1.079v-7.554H282.5v3.248h4.338v-3.248Z" transform="translate(-234.121 -589.858)"/>
        <path id="Контур_791" data-name="Контур 791" class="cls-1" d="M299.678,598.443a3.716,3.716,0,0,1-1.442-1.387,3.993,3.993,0,0,1,0-3.95,3.725,3.725,0,0,1,1.442-1.387,4.463,4.463,0,0,1,4.111,0,3.683,3.683,0,0,1,1.435,1.381,4.042,4.042,0,0,1,0,3.962,3.687,3.687,0,0,1-1.435,1.381,4.463,4.463,0,0,1-4.111,0Zm3.555-.837a2.766,2.766,0,0,0,1.047-1.042,3.062,3.062,0,0,0,0-2.967,2.768,2.768,0,0,0-1.047-1.042,2.963,2.963,0,0,0-1.494-.378,3.024,3.024,0,0,0-1.506.378,2.743,2.743,0,0,0-1.058,1.042,3.069,3.069,0,0,0,0,2.967,2.742,2.742,0,0,0,1.058,1.042,3.024,3.024,0,0,0,1.506.378A2.963,2.963,0,0,0,303.233,597.607Z" transform="translate(-242.266 -589.772)"/>
        <path id="Контур_792" data-name="Контур 792" class="cls-1" d="M316.937,598.681a3.372,3.372,0,0,1-1.246-.686l.4-.842a3.291,3.291,0,0,0,1.107.631,4.056,4.056,0,0,0,1.386.243,2.5,2.5,0,0,0,1.4-.318.982.982,0,0,0,.464-.848.835.835,0,0,0-.253-.631,1.691,1.691,0,0,0-.627-.373q-.371-.13-1.052-.292a10.948,10.948,0,0,1-1.377-.41,2.275,2.275,0,0,1-.9-.632,1.685,1.685,0,0,1-.373-1.15,1.947,1.947,0,0,1,.319-1.09,2.184,2.184,0,0,1,.966-.777,3.913,3.913,0,0,1,1.608-.292,5.093,5.093,0,0,1,1.317.172,3.517,3.517,0,0,1,1.111.5l-.356.864a3.925,3.925,0,0,0-1.015-.458,3.8,3.8,0,0,0-1.058-.156,2.332,2.332,0,0,0-1.376.334,1.023,1.023,0,0,0-.459.863.826.826,0,0,0,.259.631,1.791,1.791,0,0,0,.643.378,9.937,9.937,0,0,0,1.041.286,10.537,10.537,0,0,1,1.37.41,2.306,2.306,0,0,1,.891.625,1.65,1.65,0,0,1,.373,1.133,1.927,1.927,0,0,1-.324,1.085,2.162,2.162,0,0,1-.982.777,4.065,4.065,0,0,1-1.619.286A5.163,5.163,0,0,1,316.937,598.681Z" transform="translate(-251.254 -589.772)"/>
        <path id="Контур_793" data-name="Контур 793" class="cls-1" d="M330.669,592.33h-2.59v-.939h6.248v.939h-2.591v6.615h-1.068Z" transform="translate(-257.447 -589.858)"/>
        <path id="Контур_794" data-name="Контур 794" class="cls-1" d="M348.408,598.006v.939h-5.482v-7.554h5.33v.939h-4.251v2.32h3.787v.917h-3.787v2.439Z" transform="translate(-264.87 -589.858)"/>
        <path id="Контур_795" data-name="Контур 795" class="cls-1" d="M357.385,591.391h1.079v6.615h4.089v.939h-5.169Z" transform="translate(-272.099 -589.858)"/>
        <path id="Контур_796" data-name="Контур 796" class="cls-1" d="M376.7,588.326h.939l-3.562,10.166h-.939Z" transform="translate(-279.974 -588.326)"/>
        <path id="Контур_797" data-name="Контур 797" class="cls-1" d="M395.907,591.391v7.554h-1.079v-3.367H390.49v3.367h-1.079v-7.554h1.079v3.248h4.337v-3.248Z" transform="translate(-288.11 -589.858)"/>
        <path id="Контур_798" data-name="Контур 798" class="cls-1" d="M407.669,598.443a3.707,3.707,0,0,1-1.441-1.387,3.99,3.99,0,0,1,0-3.95,3.716,3.716,0,0,1,1.441-1.387,4.464,4.464,0,0,1,4.112,0,3.7,3.7,0,0,1,1.436,1.381,4.053,4.053,0,0,1,0,3.962,3.7,3.7,0,0,1-1.436,1.381,4.464,4.464,0,0,1-4.112,0Zm3.556-.837a2.768,2.768,0,0,0,1.047-1.042,3.069,3.069,0,0,0,0-2.967,2.769,2.769,0,0,0-1.047-1.042,2.969,2.969,0,0,0-1.5-.378,3.024,3.024,0,0,0-1.505.378,2.751,2.751,0,0,0-1.058,1.042,3.069,3.069,0,0,0,0,2.967,2.75,2.75,0,0,0,1.058,1.042,3.023,3.023,0,0,0,1.505.378A2.968,2.968,0,0,0,411.225,597.607Z" transform="translate(-296.256 -589.772)"/>
        <path id="Контур_799" data-name="Контур 799" class="cls-1" d="M432.066,598.945l-.01-5.5-2.73,4.587h-.5l-2.73-4.554v5.472h-1.036v-7.554h.885L429.1,596.7l3.108-5.309h.885l.012,7.554Z" transform="translate(-305.933 -589.858)"/>
        <path id="Контур_800" data-name="Контур 800" class="cls-1" d="M451.154,598.006v.939h-5.482v-7.554H451v.939h-4.251v2.32h3.787v.917h-3.787v2.439Z" transform="translate(-316.237 -589.858)"/>
      </g>
    </g>
    <g id="Сгруппировать_495" data-name="Сгруппировать 495" transform="translate(60.32 -227.935)">
      <path id="Контур_860" data-name="Контур 860" class="cls-2" d="M260.37,266.593a21.277,21.277,0,0,1-6.254,15.093l-3.44,3.44-.094.095a15.043,15.043,0,0,0,3.535-9.808v-.182a15.1,15.1,0,0,0-8.685-13.667.007.007,0,0,0,0,0,10.615,10.615,0,0,0-12.754-.041c-.017.015-.037.028-.056.043a15.1,15.1,0,0,0-8.685,13.768v.082a15.043,15.043,0,0,0,3.535,9.808l-.092-.092-3.445-3.443a21.345,21.345,0,1,1,36.439-15.093Z"/>
      <path id="Контур_861" data-name="Контур 861" class="cls-3" d="M277.761,338.407v.082a15.266,15.266,0,0,1-3.672,9.771c-.258.3-.528.595-.814.88l-10.839,10.837L251.6,349.141c-.284-.283-.554-.578-.812-.878a15.27,15.27,0,0,1-3.674-9.773v-.082a15.269,15.269,0,0,1,4.486-10.652v0a15.328,15.328,0,0,1,4.534-3.135c-.015.011-.032.024-.047.037s-.037.028-.056.043c-.049.036-.1.075-.146.112-.067.052-.133.1-.2.161-.131.1-.258.215-.384.333q-.094.08-.187.174c-.064.058-.129.12-.191.183a10.623,10.623,0,0,0,0,15.024l7.512,7.514,7.514-7.514a10.623,10.623,0,0,0,0-15.024c-.062-.062-.127-.125-.191-.183s-.123-.118-.185-.172q-.187-.174-.387-.335c-.064-.056-.131-.11-.2-.161-.049-.036-.1-.075-.146-.112a.007.007,0,0,0,0,0c-.032-.028-.067-.054-.1-.077a15.327,15.327,0,0,1,4.533,3.135v0A15.269,15.269,0,0,1,277.761,338.407Z" transform="translate(-23.413 -63.134)"/>
      <circle id="Эллипс_56" data-name="Эллипс 56" class="cls-2" cx="4.55" cy="4.55" r="4.55" transform="translate(234.475 264.43)"/>
    </g>
  </g>
</svg>
