<svg xmlns="http://www.w3.org/2000/svg" width="22.5" height="32" viewBox="0 0 22.5 32"><g transform="translate(-76)"><path d="M87.25,0A11.259,11.259,0,0,0,76,11.25a11.094,11.094,0,0,0,1.688,5.906l8.8,14.4a.888.888,0,0,0,.638.431.933.933,0,0,0,.956-.45l8.825-14.532A11.1,11.1,0,0,0,98.5,11.25,11.259,11.259,0,0,0,87.25,0Zm0,16.875a5.625,5.625,0,1,1,5.625-5.625A5.617,5.617,0,0,1,87.25,16.875Z" fill="#fd003a"/><path d="M256,0V5.625a5.625,5.625,0,0,1,0,11.25V32a.928.928,0,0,0,.831-.461l8.825-14.532a11.1,11.1,0,0,0,1.594-5.756A11.259,11.259,0,0,0,256,0Z" transform="translate(-168.75)" fill="#e50027"/></g></svg>