<svg xmlns="http://www.w3.org/2000/svg" width="29.999" height="21.362" viewBox="0 0 29.999 21.362">
  <g id="phone_icon" data-name="phone icon" transform="translate(0 -73.701)">
    <path id="Контур_858" data-name="Контур 858" d="M27.947,76.818C25.352,74.665,19.919,73.7,15,73.7s-10.352.964-12.948,3.117C-.322,78.786.017,82.947.017,82.947a16.7,16.7,0,0,0,5.1.607,16.7,16.7,0,0,0,5.1-.607h9.572a16.7,16.7,0,0,0,5.1.607,16.7,16.7,0,0,0,5.1-.607S30.321,78.786,27.947,76.818Z" transform="translate(0)" fill="#c20c3f"/>
    <path id="Контур_859" data-name="Контур 859" d="M80.665,155.2a4.172,4.172,0,0,1-.726-2.155v-2.935a1.806,1.806,0,0,0-1.134-1.592,22.991,22.991,0,0,0-6.694-.693,22.991,22.991,0,0,0-6.694.693,1.806,1.806,0,0,0-1.134,1.592v2.935a4.172,4.172,0,0,1-.726,2.155l-2.165,2.849a4.172,4.172,0,0,0-.726,2.155v3.439a1.2,1.2,0,0,0,1.2,1.2h20.49a1.2,1.2,0,0,0,1.2-1.2v-3.439a4.172,4.172,0,0,0-.726-2.155Z" transform="translate(-57.111 -69.783)" fill="#ff385c"/>
    <circle id="Эллипс_54" data-name="Эллипс 54" cx="4.666" cy="4.666" r="4.666" transform="translate(10.333 81.167)" fill="#fff"/>
    <circle id="Эллипс_55" data-name="Эллипс 55" cx="1.677" cy="1.677" r="1.677" transform="translate(13.322 84.156)" fill="#c20c3f"/>
  </g>
</svg>
