<svg xmlns="http://www.w3.org/2000/svg" xmlns:xlink="http://www.w3.org/1999/xlink" width="128" height="128" viewBox="0 0 128 128"><defs><style>.a{fill:none;}.b{clip-path:url(#a);}.c{fill:#fff;}</style><clipPath id="a"><rect class="a" width="128" height="128"/></clipPath></defs><g transform="translate(0.023 0.011)"><g class="b" transform="translate(-0.023 -0.011)"><g transform="translate(22.303 16.07)"><path class="c" d="M63.034,67.151c10.331-16.213,9.029-14.192,9.328-14.613a31.062,31.062,0,0,0,5.749-18.059A31.288,31.288,0,1,0,21.45,52.773l9.163,14.379c-9.8,1.5-26.453,5.995-26.453,15.877,0,3.6,2.347,8.731,13.547,12.731,7.824,2.795,18.16,4.336,29.12,4.336,20.48,0,42.667-5.781,42.667-17.067C89.492,73.141,72.852,68.661,63.034,67.151ZM26.2,49.642l-.1-.144a25.6,25.6,0,1,1,41.648-.288c-.272.363,1.157-1.861-20.923,32.789ZM46.826,94.4c-22.379,0-36.981-6.576-36.981-11.376,0-3.227,7.5-8.533,24.133-10.6L44.426,88.821a2.84,2.84,0,0,0,4.795,0L59.668,72.426C76.3,74.5,83.8,79.8,83.8,83.029,83.8,87.786,69.327,94.4,46.826,94.4Z" transform="translate(-4.159 -3.002)"/><g transform="translate(28.443 17.259)"><path class="c" d="M23.716,6.238A14.221,14.221,0,1,0,37.935,20.457,14.236,14.236,0,0,0,23.716,6.238Zm0,22.752a8.533,8.533,0,1,1,8.533-8.533A8.538,8.538,0,0,1,23.716,28.99Z" transform="translate(-9.492 -6.238)"/></g></g></g></g></svg>