<svg xmlns="http://www.w3.org/2000/svg" xmlns:xlink="http://www.w3.org/1999/xlink" width="128" height="128" viewBox="0 0 128 128"><defs><style>.a{fill:none;}.b{clip-path:url(#a);}.c{fill:#fff;}</style><clipPath id="a"><rect class="a" width="128" height="128" transform="translate(-91.367 -52.011)"/></clipPath></defs><g transform="translate(91.366 52.011)"><g class="b"><path class="c" d="M17.748-5.67a1.321,1.321,0,0,0-1.233-.845H14.7a1.253,1.253,0,0,0-.193.014l-9.6-.053H4.9A1.322,1.322,0,0,0,3.579-5.232a1.322,1.322,0,0,0,.153.619A35.231,35.231,0,0,1-11,42.984,35.231,35.231,0,0,1-58.6,28.253a35.231,35.231,0,0,1,14.731-47.6,35.233,35.233,0,0,1,32.79-.041L-13.2-17.257a1.323,1.323,0,0,0,0,1.87l4.937,4.938a1.322,1.322,0,0,0,.927.388L8.6-9.955h.009a1.325,1.325,0,0,0,1.323-1.326v-.006L9.827-27.228a1.317,1.317,0,0,0-.387-.926L4.5-33.092a1.359,1.359,0,0,0-1.87,0l-4.03,4.03a48.476,48.476,0,0,0-66.938,14.8,48.475,48.475,0,0,0,14.8,66.937A48.475,48.475,0,0,0,13.4,37.876,48.475,48.475,0,0,0,17.748-5.67ZM-27.367,57.468a45.73,45.73,0,0,1-45.754-45.7A45.73,45.73,0,0,1-27.416-33.992,45.734,45.734,0,0,1-1.959-26.268a1.321,1.321,0,0,0,1.671-.163l3.855-3.855,3.619,3.619.093,14.059L-6.78-12.7-10.4-16.32l2.43-2.43a1.321,1.321,0,0,0,0-1.869,1.345,1.345,0,0,0-.264-.2A37.788,37.788,0,0,0-59.952-7.371,37.789,37.789,0,0,0-46.5,44.35,37.79,37.79,0,0,0,5.222,30.9,37.793,37.793,0,0,0,7.029-3.892l7.662.042c.066-.009.14-.005.209-.015h.7A45.689,45.689,0,0,1-11.684,54.706,45.669,45.669,0,0,1-27.367,57.468Z"/><path class="c" d="M-12.35,21.749a1.321,1.321,0,0,0,1.322-1.321V3.046A1.322,1.322,0,0,0-12.35,1.723a1.323,1.323,0,0,0-1.323,1.323v7.367h-8.89L-18.731,3.7a1.322,1.322,0,0,0-.494-1.8,1.321,1.321,0,0,0-1.8.493h0l-4.961,8.693a1.322,1.322,0,0,0,.491,1.8,1.332,1.332,0,0,0,.658.174h11.167v7.367A1.323,1.323,0,0,0-12.35,21.749Z"/><path class="c" d="M-29.894,21.749a1.323,1.323,0,0,0,1.323-1.323A1.323,1.323,0,0,0-29.894,19.1H-41.061V17.227a2.163,2.163,0,0,1,1.177-1.93l8.7-4.476A4.815,4.815,0,0,0-29.1,4.337a4.816,4.816,0,0,0-4.285-2.614h-8.994a1.322,1.322,0,0,0-1.323,1.321V7.209a1.323,1.323,0,0,0,1.323,1.323A1.322,1.322,0,0,0-41.06,7.209V4.368h7.672a2.172,2.172,0,0,1,2.17,2.172,2.17,2.17,0,0,1-1.176,1.929l-8.7,4.479a4.794,4.794,0,0,0-2.613,4.281v3.2a1.322,1.322,0,0,0,1.322,1.323h0Z"/><path class="c" d="M-27.367-10.842a1.322,1.322,0,0,0,1.323-1.321V-18.5a1.323,1.323,0,0,0-1.323-1.323A1.323,1.323,0,0,0-28.69-18.5v6.33a1.322,1.322,0,0,0,1.32,1.324Z"/><path class="c" d="M-27.367,43.289a1.322,1.322,0,0,0,1.323-1.321h0V35.636a1.323,1.323,0,0,0-1.323-1.322,1.322,1.322,0,0,0-1.323,1.322h0v6.331a1.321,1.321,0,0,0,1.321,1.322Z"/><path class="c" d="M-45.206-4.23a1.324,1.324,0,0,0,1.872,0,1.323,1.323,0,0,0,0-1.872l-4.476-4.477a1.324,1.324,0,0,0-1.871,0,1.324,1.324,0,0,0,0,1.871Z"/><path class="c" d="M-6.926,34.048a1.322,1.322,0,0,0,1.871,0,1.322,1.322,0,0,0,0-1.871h0L-9.529,27.7a1.323,1.323,0,0,0-1.87,0,1.322,1.322,0,0,0,0,1.871Z"/><path class="c" d="M-48.744,34.435a1.317,1.317,0,0,0,.935-.387l4.476-4.476a1.323,1.323,0,0,0,0-1.872,1.325,1.325,0,0,0-1.872,0l-4.476,4.476a1.323,1.323,0,0,0,0,1.871,1.321,1.321,0,0,0,.935.387Z"/><path class="c" d="M-51.268,10.413H-57.6a1.323,1.323,0,0,0-1.323,1.323A1.323,1.323,0,0,0-57.6,13.059h6.33a1.323,1.323,0,0,0,1.323-1.323A1.323,1.323,0,0,0-51.268,10.413Z"/><path class="c" d="M-3.467,13.059H2.867a1.323,1.323,0,0,0,0-2.646H-3.467a1.322,1.322,0,0,0-1.322,1.323,1.323,1.323,0,0,0,1.322,1.323Z"/></g></g></svg>