<svg xmlns="http://www.w3.org/2000/svg" xmlns:xlink="http://www.w3.org/1999/xlink" width="128" height="128" viewBox="0 0 128 128"><defs><style>.a{fill:none;}.b{clip-path:url(#a);}.c{fill:#fff;}</style><clipPath id="a"><rect class="a" width="128" height="128" transform="translate(-52.023 -52.011)"/></clipPath></defs><g class="b" transform="translate(52.023 52.011)"><path class="c" d="M44.7,43.19H-42.851A1.708,1.708,0,0,0-44.559,44.9a1.708,1.708,0,0,0,1.708,1.708h3.05a9.544,9.544,0,0,0,9.374,7.823,9.524,9.524,0,0,0,7.822-4.1,9.525,9.525,0,0,0,7.822,4.1,9.545,9.545,0,0,0,9.375-7.823H8.053a9.523,9.523,0,0,0,17.2,3.727,9.523,9.523,0,0,0,17.2-3.727H44.7a1.708,1.708,0,0,0,0-3.416Zm-75.131,7.822A6.124,6.124,0,0,1-36.3,46.606h11.742A6.124,6.124,0,0,1-30.427,51.012Zm15.644,0a6.125,6.125,0,0,1-5.871-4.406H-8.911A6.125,6.125,0,0,1-14.783,51.012Zm32.21,0a6.125,6.125,0,0,1-5.872-4.406H23.3A6.125,6.125,0,0,1,17.427,51.012Zm15.644,0A6.124,6.124,0,0,1,27.2,46.606H38.943A6.125,6.125,0,0,1,33.071,51.012Z"/><path class="c" d="M67.738,21.473,50.122,3.857A38.266,38.266,0,0,0,22.885-7.424H9.7V-9.4a5.4,5.4,0,0,0-5.389-5.39H-8.516l-4.35-7.376L-9.3-30.236H8.778l1.829,3.657a1.707,1.707,0,0,0,1.529.945,1.7,1.7,0,0,0,.763-.181,1.709,1.709,0,0,0,.764-2.292l-2.3-4.6a1.707,1.707,0,0,0-1.528-.944H-20.075a1.706,1.706,0,0,0-1.527.944l-2.3,4.6a1.708,1.708,0,0,0,.764,2.291,1.708,1.708,0,0,0,2.292-.764l1.829-3.657h5.984l-3.311,7.5a1.706,1.706,0,0,0,.091,1.558l3.772,6.4h-3.451A5.4,5.4,0,0,0-21.322-9.4v1.973h-5.2a1.708,1.708,0,0,0-1.708,1.708,1.708,1.708,0,0,0,1.708,1.708H22.885A34.9,34.9,0,0,1,40.347.628H21.568A1.708,1.708,0,0,0,19.86,2.336v9.2a10.922,10.922,0,0,0,10.911,10.91H39.8a1.708,1.708,0,1,0,0-3.416H30.771a7.5,7.5,0,0,1-7.5-7.494V4.044H45.259Q46.525,5.1,47.706,6.273l12.76,12.76H47.79a1.708,1.708,0,1,0,0,3.416H63.883l1.439,1.44a11.255,11.255,0,0,1,2.824,4.692h-41.5a7.449,7.449,0,0,1-5.3-2.195l-3.007-3.007a10.836,10.836,0,0,0-7.715-3.2H-42.851a1.708,1.708,0,0,0-1.708,1.708A1.709,1.709,0,0,0-42.851,23.6H10.624a7.441,7.441,0,0,1,5.3,2.195L18.93,28.8A10.84,10.84,0,0,0,26.645,32H68.631a11.318,11.318,0,0,1-11.3,11.193H52.676a1.708,1.708,0,0,0,0,3.416h4.651A14.723,14.723,0,0,0,67.738,21.473ZM-17.906-9.4a1.975,1.975,0,0,1,1.973-1.973H4.313A1.975,1.975,0,0,1,6.286-9.4v1.973H-17.906V-9.4Z"/><path class="c" d="M-42.851-4.008h8.346A1.708,1.708,0,0,0-32.8-5.716a1.708,1.708,0,0,0-1.708-1.708h-8.346a1.708,1.708,0,0,0-1.708,1.708A1.708,1.708,0,0,0-42.851-4.008Z"/><path class="c" d="M7.994,16.468A1.708,1.708,0,0,0,9.7,14.76V2.336A1.708,1.708,0,0,0,7.994.628H-15.013a1.708,1.708,0,0,0-1.708,1.708V14.76a1.708,1.708,0,0,0,1.708,1.708Zm-21.3-12.424H6.286v9.008H-13.305Z"/><path class="c" d="M-42.851,13.052a1.708,1.708,0,0,0-1.708,1.708,1.708,1.708,0,0,0,1.708,1.708h20.476a1.708,1.708,0,0,0,1.708-1.708V2.336A1.708,1.708,0,0,0-22.375.628H-42.851a1.708,1.708,0,0,0-1.708,1.708,1.708,1.708,0,0,0,1.708,1.708h18.768v9.008Z"/><path class="c" d="M9.012,37.076v-4.6a1.708,1.708,0,0,0-3.416,0v4.6a1.708,1.708,0,1,0,3.416,0Z"/><path class="c" d="M1.65,37.076v-4.6A1.708,1.708,0,0,0-.058,30.767a1.709,1.709,0,0,0-1.709,1.708v4.6A1.709,1.709,0,0,0-.058,38.784,1.708,1.708,0,0,0,1.65,37.076Z"/><path class="c" d="M-5.712,37.076v-4.6A1.708,1.708,0,0,0-7.42,30.767a1.709,1.709,0,0,0-1.709,1.708v4.6A1.709,1.709,0,0,0-7.42,38.784,1.708,1.708,0,0,0-5.712,37.076Z"/></g></svg>