<svg xmlns="http://www.w3.org/2000/svg" xmlns:xlink="http://www.w3.org/1999/xlink" width="128" height="128" viewBox="0 0 128 128"><defs><style>.a{fill:none;}.b{clip-path:url(#a);}.c{fill:#fff;}</style><clipPath id="a"><rect class="a" width="128" height="128" transform="translate(-47.471 49.112)"/></clipPath></defs><g transform="translate(47.471 -49.112)"><g class="b"><circle class="c" cx="6.924" cy="6.924" r="6.924" transform="translate(9.977 145.368)"/><path class="c" d="M69.695,93.832A71.2,71.2,0,0,0,17.11,70.887,71.2,71.2,0,0,0-35.474,93.832a4.2,4.2,0,0,0,.209,5.931,4.2,4.2,0,0,0,5.931-.209A62.889,62.889,0,0,1,17.111,79.279,62.892,62.892,0,0,1,63.556,99.554a4.2,4.2,0,1,0,6.139-5.722Z"/><path class="c" d="M54.287,111.161A52.266,52.266,0,0,0,17.11,95.234a52.26,52.26,0,0,0-37.177,15.927,4.2,4.2,0,0,0,.023,5.935,4.2,4.2,0,0,0,5.934-.024,43.93,43.93,0,0,1,31.22-13.445,43.931,43.931,0,0,1,31.22,13.446,4.2,4.2,0,1,0,5.957-5.912Z"/><path class="c" d="M37.494,128.54c-5.46-5.408-13.285-8.768-20.423-8.768h-.308c-7.139,0-14.965,3.36-20.424,8.768a4.2,4.2,0,0,0-.027,5.934,4.184,4.184,0,0,0,2.981,1.243A4.181,4.181,0,0,0,2.246,134.5a21.914,21.914,0,0,1,14.517-6.338h.308A21.913,21.913,0,0,1,31.587,134.5a4.2,4.2,0,0,0,5.907-5.962Z"/></g></g></svg>