<svg xmlns="http://www.w3.org/2000/svg" width="36" height="36" viewBox="0 0 36 36"><defs><style>.a{fill:#4a7aff;}.b{fill:#0053bf;}.c{fill:#fff;}.d{fill:#dce1eb;}</style></defs><path class="a" d="M36,18A18,18,0,1,1,18,0,18,18,0,0,1,36,18Z"/><path class="b" d="M18.79,36A18,18,0,0,0,36,18v-.21L23.5,5.3l-13.36,14,7.43,7.42-3.43,4.66Z"/><path class="c" d="M23.5,5.3V9.37s-4.68-.68-4.68,2.34v3h4.23l-.53,4.6h-3.7v12H14.14v-12l-4-.07V14.73h3.93V11.26s-.26-5.17,4.83-6.12a13.58,13.58,0,0,1,4.6.16Z"/><path class="d" d="M23.5,9.37V5.3a13.58,13.58,0,0,0-4.6-.16,9.42,9.42,0,0,0-.92.24v26h.84v-12h3.7l.53-4.6H18.82v-3C18.82,8.69,23.5,9.37,23.5,9.37Z"/></svg>