<svg xmlns="http://www.w3.org/2000/svg" xmlns:xlink="http://www.w3.org/1999/xlink" width="36" height="36" viewBox="0 0 36 36"><defs><style>.a,.c{isolation:isolate;}.b{fill:url(#a);}.c{opacity:0.9;mix-blend-mode:multiply;fill:url(#b);}.d{fill:#fff;}</style><linearGradient id="a" y1="0.497" x2="1" y2="0.497" gradientUnits="objectBoundingBox"><stop offset="0" stop-color="#ffd600"/><stop offset="0.5" stop-color="#ff0100"/><stop offset="1" stop-color="#d800b9"/></linearGradient><linearGradient id="b" x1="0.047" y1="0.043" x2="0.808" y2="0.806" gradientUnits="objectBoundingBox"><stop offset="0" stop-color="#ffab00"/><stop offset="0.5" stop-color="#b40100"/><stop offset="1" stop-color="#d800b9"/></linearGradient></defs><g class="a"><circle class="b" cx="18" cy="18" r="18"/><path class="c" d="M36,18.8A18,18,0,0,1,18.87,36l-9.8-9.8L8.7,11.24l1.9-1.71L26,8.79Z"/><path class="d" d="M28.27,13.74a7.66,7.66,0,0,0-.48-2.51,5.22,5.22,0,0,0-3-3,7.66,7.66,0,0,0-2.51-.48c-1.1,0-1.45-.07-4.26-.07s-3.16,0-4.26.07a7.66,7.66,0,0,0-2.51.48,5.22,5.22,0,0,0-3,3,7.66,7.66,0,0,0-.48,2.51c0,1.1-.07,1.45-.07,4.26s0,3.16.07,4.26a7.66,7.66,0,0,0,.48,2.51,5.22,5.22,0,0,0,3,3,7.66,7.66,0,0,0,2.51.48c1.1.05,1.45.07,4.26.07s3.16,0,4.26-.07a7.66,7.66,0,0,0,2.51-.48,5.22,5.22,0,0,0,3-3,7.66,7.66,0,0,0,.48-2.51c.05-1.1.07-1.45.07-4.26S28.32,14.84,28.27,13.74Zm-1.86,8.44a5.72,5.72,0,0,1-.35,1.92,3.46,3.46,0,0,1-2,2,5.72,5.72,0,0,1-1.92.35c-1.09.05-1.42.06-4.18.06s-3.09,0-4.18-.06a5.72,5.72,0,0,1-1.92-.35,3.25,3.25,0,0,1-1.18-.78,3.12,3.12,0,0,1-.78-1.18,5.72,5.72,0,0,1-.35-1.92C9.5,21.13,9.49,20.8,9.49,18s0-3.09.06-4.18A5.72,5.72,0,0,1,9.9,11.9a3.52,3.52,0,0,1,2-2,5.72,5.72,0,0,1,1.92-.35c1.09-.05,1.42-.06,4.18-.06h0c2.76,0,3.09,0,4.18.06a5.72,5.72,0,0,1,1.92.35,3.52,3.52,0,0,1,2,2,5.72,5.72,0,0,1,.35,1.92c.05,1.09.06,1.42.06,4.18S26.46,21.09,26.41,22.18Z"/><path class="d" d="M18,12.69A5.31,5.31,0,1,0,23.31,18h0A5.31,5.31,0,0,0,18,12.69Zm0,8.76a3.44,3.44,0,1,1,2.442-1.008A3.45,3.45,0,0,1,18,21.45Z"/><path class="d" d="M24.76,12.48a1.24,1.24,0,1,1-1.24-1.24h0A1.25,1.25,0,0,1,24.76,12.48Z"/></g></svg>