<svg xmlns="http://www.w3.org/2000/svg" width="36" height="36" viewBox="0 0 36 36"><defs><style>.a{fill:#41b4e6;}.b{fill:#0091c8;}.c{fill:#fff;}.d{fill:#d2d2d7;}.e{fill:#b9b9be;}</style></defs><g transform="translate(91 -73)"><g transform="translate(-91 73)"><circle class="a" cx="18" cy="18" r="18"/><path class="b" d="M36,18V16.7L28.49,9.24l-21,8.25,8,8,.1.38.14-.14h0l-.14.14,8.88,8.88A18,18,0,0,0,36,18Z"/><path class="c" d="M16.25,20.62l8.14,6.14,4.1-17.52L7.51,17.49l6.38,2.12,11.66-7.82Z"/><path class="d" d="M13.89,19.61l1.75,6.29.61-5.28,9.3-8.83Z"/><path class="e" d="M18.9,22.62,15.64,25.9l.61-5.28Z"/></g></g></svg>