<svg xmlns="http://www.w3.org/2000/svg" width="36" height="36" viewBox="0 0 36 36"><defs><style>.a{fill:#6f3faa;}.b{fill:#512d84;}.c{fill:#fff;}.d{fill:#d1d1d1;}</style></defs><circle class="a" cx="18" cy="18" r="18"/><path class="b" d="M25.81,9.87c-4.38-1-8.77-2.29-13.26-.72-2.91,1.09-2.91,4.24-2.79,6.91,0,.73-.85,1.7-.49,2.55.73,2.42,1.34,4.84,3.88,6.06.37.24,0,.72.24,1.09-.12,0-.36.12-.36.24a8.24,8.24,0,0,1,.09,2l7.73,7.73A18,18,0,0,0,35.89,20Z"/><path class="c" d="M27.52,12.65h0a6.88,6.88,0,0,0-4.64-4.47h0a25.53,25.53,0,0,0-9.7,0h0a6.88,6.88,0,0,0-4.64,4.47h0a18.86,18.86,0,0,0,0,8.19h0a6.94,6.94,0,0,0,4.39,4.4v2.17a.87.87,0,0,0,1.5.6l2.2-2.28h1.43a25.61,25.61,0,0,0,4.85-.46h0a6.87,6.87,0,0,0,4.64-4.46h0A18.86,18.86,0,0,0,27.52,12.65Zm-1.74,7.79a5.2,5.2,0,0,1-3.27,3.14,25,25,0,0,1-5.17.42h-.09l-1.6,1.65L13.94,27.4a.2.2,0,0,1-.35-.13V23.7a.12.12,0,0,0-.1-.12h0a5.18,5.18,0,0,1-3.27-3.14,17.1,17.1,0,0,1,0-7.4,5.19,5.19,0,0,1,3.27-3.13,24,24,0,0,1,9,0A5.19,5.19,0,0,1,25.78,13a17.1,17.1,0,0,1,0,7.44Z"/><path class="c" d="M20.85,22.1c-.21-.06-.4-.1-.58-.17a13,13,0,0,1-4.88-3.27,12.59,12.59,0,0,1-1.87-2.86c-.24-.49-.44-1-.65-1.5a1.3,1.3,0,0,1,.38-1.3,3.1,3.1,0,0,1,1-.75.64.64,0,0,1,.81.19,10.31,10.31,0,0,1,1.25,1.75.84.84,0,0,1-.24,1.13l-.27.21a1,1,0,0,0-.2.21.6.6,0,0,0,0,.52,4.68,4.68,0,0,0,2.62,2.9,1.38,1.38,0,0,0,.67.16c.41-.05.54-.5.83-.73a.78.78,0,0,1,.94-.05c.3.2.6.4.89.61a10.059,10.059,0,0,1,.83.63.66.66,0,0,1,.2.82,2.78,2.78,0,0,1-1.19,1.32,2.76,2.76,0,0,1-.51.16C20.64,22,21,22.05,20.85,22.1Z"/><path class="c" d="M18,11.63a4.9,4.9,0,0,1,4.82,4.06A10.05,10.05,0,0,1,23,16.92a.28.28,0,0,1-.27.34c-.19,0-.28-.16-.29-.33a3.62,3.62,0,0,0-.09-1,4.29,4.29,0,0,0-3.47-3.6c-.27-.05-.55-.06-.82-.09s-.4,0-.44-.25a.3.3,0,0,1,.3-.33H18C20.42,11.7,18,11.63,18,11.63Z"/><path class="c" d="M21.67,16.38a.59.59,0,0,1,0,.17.28.28,0,0,1-.52,0,.91.91,0,0,1,0-.23,2.92,2.92,0,0,0-.37-1.47,2.67,2.67,0,0,0-1.14-1.07,3.31,3.31,0,0,0-.91-.28l-.42-.06a.27.27,0,0,1-.25-.29.26.26,0,0,1,.29-.26,3.74,3.74,0,0,1,1.58.41,3.19,3.19,0,0,1,1.74,2.49v.56C21.67,16.51,21.66,16.22,21.67,16.38Z"/><path class="c" d="M20.17,16.33a.3.3,0,0,1-.33-.3,2.32,2.32,0,0,0-.06-.38,1.06,1.06,0,0,0-.4-.63,1.2,1.2,0,0,0-.32-.16,1.012,1.012,0,0,1-.45-.07.27.27,0,0,1-.23-.31.3.3,0,0,1,.31-.24,1.66,1.66,0,0,1,1.7,1.65,1,1,0,0,1,0,.24.25.25,0,0,1-.22.2C20,16.33,20.26,16.32,20.17,16.33Z"/><path class="d" d="M27.52,12.65h0a6.4,6.4,0,0,0-2.07-3.09l-1.36,1.2A4.8,4.8,0,0,1,25.78,13a17.1,17.1,0,0,1,0,7.4,5.2,5.2,0,0,1-3.27,3.14,25,25,0,0,1-5.17.42h-.09l-1.6,1.65-1.71,1.75a.2.2,0,0,1-.35-.13V23.7a.12.12,0,0,0-.1-.12h0a5,5,0,0,1-2.25-1.45L9.9,23.31a6.84,6.84,0,0,0,3,2v2.17a.87.87,0,0,0,1.5.6l2.2-2.28h1.43a25.61,25.61,0,0,0,4.85-.46h0a6.87,6.87,0,0,0,4.64-4.46h0A18.86,18.86,0,0,0,27.52,12.65Z"/><path class="c" d="M20.85,22.1C21.02,22.05,20.64,22.04,20.85,22.1Z"/><path class="d" d="M22.35,19.8a10.06,10.06,0,0,0-.83-.63c-.29-.21-.59-.41-.89-.61a.78.78,0,0,0-.94.05c-.29.23-.42.68-.83.73a1.29,1.29,0,0,1-.67-.17,4.24,4.24,0,0,1-1.91-1.51l-1,.88.1.12a13,13,0,0,0,4.88,3.27c.18.07.37.11.58.17-.21-.06.17-.05,0,0a2.76,2.76,0,0,0,.51-.16,2.78,2.78,0,0,0,1.19-1.32.65.65,0,0,0-.19-.82Z"/><path class="c" d="M18,11.63Z"/><path class="c" d="M18,11.63Z"/><path class="d" d="M21.47,13.07l-.43.37A4.24,4.24,0,0,1,22.3,15.9c.05.34.06.68.09,1a.3.3,0,0,0,.29.33.28.28,0,0,0,.27-.34,10.049,10.049,0,0,0-.13-1.23,4.83,4.83,0,0,0-1.35-2.59Z"/><path class="d" d="M21.62,15.82a3.23,3.23,0,0,0-1-2l-.42.38a2.53,2.53,0,0,1,.55.67,2.92,2.92,0,0,1,.37,1.47.91.91,0,0,0,0,.23.28.28,0,0,0,.52,0,.62.62,0,0,0,0-.17h0v-.41Z"/><path class="c" d="M21.67,16.38Z"/><path class="c" d="M20.17,16.33Z"/><path class="c" d="M20.17,16.33Z"/><path class="c" d="M20.18,16.32Z"/><path class="d" d="M19.74,14.59l-.43.38h.07a1.06,1.06,0,0,1,.4.63,2.32,2.32,0,0,1,.06.38.29.29,0,0,0,.31.29h0a.24.24,0,0,0,.21-.19,1,1,0,0,0,0-.24,1.71,1.71,0,0,0-.62-1.25Z"/></svg>