<svg xmlns="http://www.w3.org/2000/svg" width="36" height="36" viewBox="0 0 36 36"><defs><style>.a{fill:#d22215;}.b{fill:#a81411;}.c{fill:#fff;}.d{fill:#d1d1d1;}</style></defs><circle class="a" cx="18" cy="18" r="18"/><path class="b" d="M27.06,12c-.54.16-1.1.3-1.67.44-4,.85-9.33-1.45-11.63,2.31-1.92,3-2.53,6.72-4.71,9.4L20.72,35.8A18,18,0,0,0,35.8,20.71Z"/><path class="c" d="M24,10.71H12A4.28,4.28,0,0,0,7.7,15v6A4.28,4.28,0,0,0,12,25.29H24A4.28,4.28,0,0,0,28.3,21V15A4.28,4.28,0,0,0,24,10.71Zm-2.89,7.58L15.5,21a.23.23,0,0,1-.33-.2V15.23a.23.23,0,0,1,.33-.2l5.63,2.86a.22.22,0,0,1,0,.4Z"/><path class="d" d="M24,10.71H17.88v5.53l3.25,1.65a.22.22,0,0,1,0,.4l-3.25,1.55v5.45H24A4.28,4.28,0,0,0,28.3,21V15A4.28,4.28,0,0,0,24,10.71Z"/></svg>