<svg xmlns="http://www.w3.org/2000/svg" xmlns:xlink="http://www.w3.org/1999/xlink" width="24" height="24" viewBox="0 0 24 24">
  <defs>
    <clipPath id="clip-path">
      <rect id="Прямоугольник_326" data-name="Прямоугольник 326" width="24" height="24" transform="translate(-0.023 -0.011)" fill="none"/>
    </clipPath>
  </defs>
  <g id="Сгруппировать_507" data-name="Сгруппировать 507" transform="translate(0.023 0.011)" clip-path="url(#clip-path)">
    <g id="check">
      <path id="Path_831" data-name="Path 831" d="M9.914,19.241a.867.867,0,0,1-1.224.076.779.779,0,0,1-.076-.076L3.425,13.594a1.593,1.593,0,0,1,0-2.121l.65-.707a1.3,1.3,0,0,1,1.835-.114,1.533,1.533,0,0,1,.114.114l3.24,3.525,8.75-9.525a1.3,1.3,0,0,1,1.835-.114,1.533,1.533,0,0,1,.114.114l.65.707a1.593,1.593,0,0,1,0,2.121Z" fill="#28ac2d"/>
    </g>
  </g>
</svg>
