<svg xmlns="http://www.w3.org/2000/svg" width="48" height="48" viewBox="0 0 48 48"><g transform="translate(-1687 -2970)"><g transform="translate(1734 2970) rotate(90)"><g transform="translate(0 -1)"><path d="M24,0A24,24,0,1,0,48,24,24.026,24.026,0,0,0,24,0Zm0,44.282A20.282,20.282,0,1,1,44.282,24,20.306,20.306,0,0,1,24,44.282Z"/></g><path d="M159.856,188.283l-9.3-9.3a1.858,1.858,0,0,0-2.621,0l-9.3,9.3a1.859,1.859,0,0,0,2.621,2.621l7.975-7.975,7.994,7.975a1.854,1.854,0,0,0,2.621-2.621Z" transform="translate(-125.241 -162.719)"/></g></g></svg>