<svg xmlns="http://www.w3.org/2000/svg" xmlns:xlink="http://www.w3.org/1999/xlink" width="64" height="64" viewBox="0 0 64 64"><defs><style>.a{fill:none;}.b{clip-path:url(#a);}</style><clipPath id="a"><rect class="a" width="64" height="64" transform="translate(1143 578)"/></clipPath></defs><g transform="translate(-1143 -578)"><g class="b"><path d="M1194.22,632.086l-1.244-4.417a10.32,10.32,0,0,0,5.4-9.065v-.793a1.586,1.586,0,0,0,1.586-1.586v-1.586a1.587,1.587,0,0,0-1.586-1.587v-7.93a1.586,1.586,0,0,0,1.586-1.586v-1.587a1.586,1.586,0,0,0-1.586-1.586h-20.62a1.586,1.586,0,0,0-1.586,1.586v1.587a1.586,1.586,0,0,0,1.586,1.586v7.93a1.587,1.587,0,0,0-1.586,1.587v1.586a1.586,1.586,0,0,0,1.586,1.586v.793a10.321,10.321,0,0,0,5.4,9.065l-1.244,4.417h-10.581a3.973,3.973,0,0,0-3.886-3.172h-.794v-7.138a10.324,10.324,0,0,0,6.345-9.517v-5.551h-14.275v-3.172h3.172v1.586h1.586v-1.586a1.587,1.587,0,0,0-1.586-1.587h-6.345a1.587,1.587,0,0,0-1.586,1.587v3.172h-1.586v5.551a10.324,10.324,0,0,0,6.345,9.517v7.138h-.793a3.971,3.971,0,0,0-3.886,3.172H1150v1.586h50.757v-1.586Zm-16.463-30.137h20.62v1.587h-20.62Zm1.587,6.345h3.172v-1.586h-3.172v-1.586h17.447v7.93h-17.447Zm-1.587,6.345h20.62v1.586h-20.62Zm1.587,3.965v-.793h17.447v.793a8.724,8.724,0,1,1-17.447,0Zm5.282,9.707a10.122,10.122,0,0,0,6.883,0l1.062,3.775h-9.007Zm-29.075-24.775h1.587v3.172h-1.587Zm15.862,4.758v1.586h-17.448v-1.586Zm-17.448,3.965v-.793h17.448v.793a8.724,8.724,0,0,1-17.448,0Zm6.345,10.022a9.97,9.97,0,0,0,4.758,0v6.633h-4.758Zm-2.379,8.219h9.517a2.38,2.38,0,0,1,2.233,1.586H1155.7A2.38,2.38,0,0,1,1157.931,630.5Z"/><path d="M1153.172,600.363h19.034a2.379,2.379,0,0,0,2.379-2.379v-11.1a2.379,2.379,0,0,0-2.379-2.379h-19.034a2.379,2.379,0,0,0-2.379,2.379v11.1A2.379,2.379,0,0,0,1153.172,600.363Zm-.793-13.482a.793.793,0,0,1,.793-.793h19.034a.793.793,0,0,1,.793.793v11.1a.793.793,0,0,1-.793.793h-19.034a.793.793,0,0,1-.793-.793Z"/><path d="M1153.405,588.235l1.122-1.121,9.517,9.517-1.122,1.121Z"/><path d="M1161.336,588.235l1.121-1.121,9.517,9.517-1.121,1.121Z"/><path d="M1177.757,590.846h1.587v1.587h-1.587Z"/><path d="M1177.757,594.019h1.587V595.6h-1.587Z"/><path d="M1179.344,592.433h1.586v1.586h-1.586Z"/><path d="M1176.171,592.433h1.586v1.586h-1.586Z"/><path d="M1185.688,586.088h1.586v1.586h-1.586Z"/><path d="M1185.688,589.26h1.586v1.586h-1.586Z"/><path d="M1187.274,587.674h1.586v1.586h-1.586Z"/><path d="M1184.1,587.674h1.586v1.586H1184.1Z"/><path d="M1193.619,594.019h1.586V595.6h-1.586Z"/><path d="M1193.619,597.191h1.586v1.586h-1.586Z"/><path d="M1195.2,595.6h1.586v1.586H1195.2Z"/><path d="M1192.033,595.6h1.586v1.586h-1.586Z"/></g></g></svg>