<svg xmlns="http://www.w3.org/2000/svg" xmlns:xlink="http://www.w3.org/1999/xlink" width="64" height="64" viewBox="0 0 64 64">
  <defs>
    <style>
      .cls-1 {
        fill: none;
      }

      .cls-2 {
        clip-path: url(#clip-path);
      }
    </style>
    <clipPath id="clip-path">
      <rect id="Прямоугольник_331" data-name="Прямоугольник 331" class="cls-1" width="64" height="64" transform="translate(927.694 507.509)"/>
    </clipPath>
  </defs>
  <g id="Сгруппировать_534" data-name="Сгруппировать 534" transform="translate(-927.694 -507.509)">
    <g id="Сгруппировать_533" data-name="Сгруппировать 533" class="cls-2">
      <path id="Контур_887" data-name="Контур 887" d="M954.281,566.2a13.686,13.686,0,0,1-13.653-13.654v-1.873h-1.25a4.423,4.423,0,0,1-4.409-4.41V542.39a3.087,3.087,0,0,1,3.08-3.079h2.581v-2.382l.006-.13v-.187l-6.479-7.418a1.1,1.1,0,0,1-.243-.956l1.271-5.734a1.09,1.09,0,0,1,.682-.787l23.439-8.824a1.088,1.088,0,0,1,.773,0l23.443,8.823a1.09,1.09,0,0,1,.682.787l1.27,5.735a1.1,1.1,0,0,1-.243.956l-6.488,7.428.035.231,0,2.457h2.581a3.088,3.088,0,0,1,3.079,3.081v3.868a4.42,4.42,0,0,1-4.41,4.412h-1.25v1.875A13.69,13.69,0,0,1,965.128,566.2ZM942.812,552.54a11.5,11.5,0,0,0,11.468,11.469h10.849A11.5,11.5,0,0,0,976.6,552.547V540.783l-.8.612a15.506,15.506,0,0,1-2.906,1.744,28.691,28.691,0,0,1-8.95,2.346l-.5.048.6,6.163.005.1a1.1,1.1,0,0,1-1.094,1.1h-6.507l-.1-.006a1.092,1.092,0,0,1-.984-1.194l.6-6.166-.5-.048a28.636,28.636,0,0,1-8.938-2.346,15.309,15.309,0,0,1-2.9-1.741l-.8-.613Zm14.831-1.831h4.1l-.483-5.025-.469.013c-.327.01-.662.016-1,.016-.452,0-.822-.006-1.193-.016l-.466-.011Zm-19.594-9.214a.9.9,0,0,0-.894.9v3.869a2.228,2.228,0,0,0,2.219,2.227h1.256v-6.99Zm40.733,6.987h1.25a2.228,2.228,0,0,0,2.223-2.222v-3.87a.894.894,0,0,0-.894-.894h-2.579ZM943.42,538.059c1.7,2.633,7.524,5.468,16.285,5.468s14.58-2.835,16.284-5.468l.5-.772H942.922Zm-6.232-14.505-1.021,4.617,6.052,6.929H977.17l6.051-6.929-1.023-4.617-22.5-8.47Z"/>
      <path id="Контур_888" data-name="Контур 888" d="M959.692,532.015a1.086,1.086,0,0,1-.413-.081l-4.083-1.667a1.087,1.087,0,0,1-.676-1.011V521.33a1.1,1.1,0,0,1,.878-1.072,33.632,33.632,0,0,1,4.338-.638,34.489,34.489,0,0,1,4.252.637,1.1,1.1,0,0,1,.881,1.072v7.926a1.089,1.089,0,0,1-.68,1.012l-4.084,1.667A1.079,1.079,0,0,1,959.692,532.015Zm-.04-10.207a21.718,21.718,0,0,0-2.548.352l-.4.08v6.277l2.991,1.22,2.989-1.22V522.24l-.4-.08a21.69,21.69,0,0,0-2.548-.352l-.039,0Z"/>
    </g>
  </g>
</svg>
