<svg xmlns="http://www.w3.org/2000/svg" xmlns:xlink="http://www.w3.org/1999/xlink" width="64" height="64" viewBox="0 0 64 64"><defs><style>.a{fill:none;}.b{clip-path:url(#a);}</style><clipPath id="a"><rect class="a" width="64" height="64" transform="translate(1068 508)"/></clipPath></defs><g transform="translate(-1068 -508)"><g class="b"><path d="M1128.3,522.71h-21.508a.978.978,0,0,0-.978.978h0v23.465h-4.889v-.978h.978a.978.978,0,0,0,0-1.955h-9.777a.978.978,0,0,0,0,1.955h.978v.978h-9.777v-.978h.978a.978.978,0,0,0,0-1.955h-9.777a.978.978,0,0,0,0,1.955h.977v.978h-3.91a.977.977,0,0,0-.978.977v19.554a.978.978,0,0,0,.978.978h56.7a.978.978,0,0,0,.978-.978v-44a.978.978,0,0,0-.978-.978Zm-33.241,23.465h3.911v.978h-3.911Zm-17.6,0h3.911v.978h-3.911Zm8.8,20.531h-13.688V554.974h13.688Zm0-13.687h-13.688v-3.911h13.688Zm19.554,13.687h-17.6v-17.6h17.6Zm21.509,0h-19.554v-26.4h19.554Zm0-28.352h-19.554V524.665h19.554Z"/><path d="M1091.145,564.751h11.732a.978.978,0,0,0,.978-.978V552.04a.977.977,0,0,0-.978-.977h-11.732a.978.978,0,0,0-.978.978v11.732A.979.979,0,0,0,1091.145,564.751Zm.978-11.733h9.776v9.777h-9.777Z"/><path d="M1109.722,537.376a.978.978,0,0,0,.978-.978v-3.911a.978.978,0,1,0-1.955-.06c0,.02,0,.04,0,.06V536.4A.979.979,0,0,0,1109.722,537.376Z"/><path d="M1109.722,547.152a.978.978,0,0,0,.978-.978v-3.911a.978.978,0,1,0-1.955-.06c0,.02,0,.04,0,.06v3.911A.977.977,0,0,0,1109.722,547.152Z"/><path d="M1072.919,527.371a.973.973,0,0,0,.628.227h29.33a.978.978,0,0,0,.752-1.6l-9.776-11.732a.979.979,0,0,0-.752-.351h-.978v-2.933a.978.978,0,0,0-.978-.978h-5.866a.978.978,0,0,0-.977.978v2.933h-.978a.979.979,0,0,0-.752.351l-9.777,11.732A.978.978,0,0,0,1072.919,527.371Zm13.338-15.416h3.911v1.956h-3.911Zm-2.475,3.911h8.86l8.148,9.777h-25.155Z"/></g></g></svg>