<svg xmlns="http://www.w3.org/2000/svg" xmlns:xlink="http://www.w3.org/1999/xlink" width="64" height="64" viewBox="0 0 64 64"><defs><style>.a{fill:none;}.b{clip-path:url(#a);}</style><clipPath id="a"><rect class="a" width="64" height="64" transform="translate(999.177 508)"/></clipPath></defs><g transform="translate(-999.177 -508)"><g class="b"><path d="M1034.126,539.745l19.976-21.976a1.629,1.629,0,0,0-1.205-2.724h-6.249l2.178-2.3a.806.806,0,0,0-1.115-1.164c-.019.018-.037.038-.055.058l-3.23,3.406h-34.97a1.629,1.629,0,0,0-1.205,2.724l19.976,21.976a3.994,3.994,0,0,0,.71.614v19.364a2.4,2.4,0,0,1-1.615,2.271l-6.693,2.327-.048.018a1.065,1.065,0,0,0,.413,2.048h20.364a1.065,1.065,0,0,0,.414-2.047l-.048-.018-6.693-2.327a2.409,2.409,0,0,1-1.62-2.272V540.36A3.957,3.957,0,0,0,1034.126,539.745Zm10.994-23.088h7.786a.047.047,0,0,1,.01.018l-.005.012-4.961,5.458h-3.968a4.071,4.071,0,0,0-.661-3.588ZM1034.5,563.518l3.616,1.257h-13.881l3.616-1.257a4.018,4.018,0,0,0,2.7-3.794V541l.107.014.057.008.128.013h.039c.1.007.2.012.3.012s.2-.005.3-.012h.037l.13-.013.054-.007.109-.015v18.723A4.02,4.02,0,0,0,1034.5,563.518Zm-1.568-24.857a2.363,2.363,0,0,1-.668.515l-.018.008a2.385,2.385,0,0,1-2.14,0l-.018-.008a2.392,2.392,0,0,1-.668-.515l-13.55-14.906h2.989a.806.806,0,1,0,0-1.612h-4.455l-4.961-5.456-.006-.007a.07.07,0,0,1,.007-.02H1042.9l-.746.787a4.225,4.225,0,0,0-2.182-.7,3.519,3.519,0,0,0-3.688,3.89,4.049,4.049,0,0,0,.057.413,3.629,3.629,0,0,0-3.155,1.054l-.039.043h-10.534a.806.806,0,1,0,0,1.612h9.7a3.894,3.894,0,0,0-.015,1.551,4.1,4.1,0,0,0-.415-.035,3.561,3.561,0,0,0-2.743,1.093,3.859,3.859,0,0,0-.128,4.938l-.891.94a.806.806,0,1,0,1.17,1.109h0l.891-.939a4.225,4.225,0,0,0,2.182.7h.13a3.515,3.515,0,0,0,3.578-3.451,3.418,3.418,0,0,0-.02-.441,4.166,4.166,0,0,0-.057-.413,3.891,3.891,0,0,0,.539.037,3.56,3.56,0,0,0,2.616-1.092,3.625,3.625,0,0,0,.885-3.207,3.87,3.87,0,0,0,.415.035h.13a3.569,3.569,0,0,0,2.334-.832h3.566Zm1.421-15.452a1.963,1.963,0,0,1,1.445-.592,2.7,2.7,0,0,1,1.835.765,2.159,2.159,0,1,1-2.933,3.094h0a2.341,2.341,0,0,1-.347-3.268Zm-.416,7.7a1.972,1.972,0,0,1-1.521.59,2.7,2.7,0,0,1-1.759-.763,2.341,2.341,0,0,1-.347-3.266,1.957,1.957,0,0,1,1.445-.592h.076a2.7,2.7,0,0,1,1.759.762h0a2.7,2.7,0,0,1,.855,1.716,1.969,1.969,0,0,1-.508,1.555Zm3.95-10.416a1.9,1.9,0,0,1,1.644-2.126,1.873,1.873,0,0,1,.309-.014h.076a2.7,2.7,0,0,1,1.759.763,2.339,2.339,0,0,1,.347,3.271,1.971,1.971,0,0,1-1.521.59,2.8,2.8,0,0,1-2.614-2.479Z"/></g></g></svg>