<svg xmlns="http://www.w3.org/2000/svg" xmlns:xlink="http://www.w3.org/1999/xlink" width="64" height="64" viewBox="0 0 64 64"><defs><style>.a{fill:none;}.b{clip-path:url(#a);}</style><clipPath id="a"><rect class="a" width="64" height="64" transform="translate(1143 508)"/></clipPath></defs><g transform="translate(-0.285 -45)"><g transform="translate(-1142.715 -463)"><g class="b"><path d="M1202.59,516.945h-4.532a1.371,1.371,0,0,0-.969.4l-4.525,4.526-1.291-1.291,5.2-5.2a.916.916,0,0,1,.646-.271h5.477a1.369,1.369,0,1,0,.07-2.738h-5.547a3.676,3.676,0,0,0-2.582,1.07l-5.2,5.2c-1.024-.972-2.053.059-2.751.846a17.787,17.787,0,0,0-18.646.987c-.595-.768-1.646-1.352-2.463-.527l-3.872,3.872a1.37,1.37,0,0,0,0,1.936l25.817,25.818a1.379,1.379,0,0,0,1.937,0l3.873-3.872c.825-.815.24-1.868-.527-2.463a17.787,17.787,0,0,0,.986-18.652l.831-.831a1.368,1.368,0,0,0,0-1.936l-.016-.016,4.126-4.126h3.964a1.369,1.369,0,1,0,.071-2.738h-.071Zm-14.2,31.732L1164.5,524.794l1.936-1.936,23.881,23.881Zm2.339-5.405-20.818-20.818a15.045,15.045,0,0,1,16.166-.091,1.369,1.369,0,0,0,1.7-.191l.611-.612,3.211,3.222.017.016-.611.611a1.369,1.369,0,0,0-.19,1.7,15.046,15.046,0,0,1-.084,16.162Z"/><circle cx="1.369" cy="1.369" r="1.369" transform="translate(1170.234 540.206)"/><circle cx="1.369" cy="1.369" r="1.369" transform="translate(1174.429 544.402)"/><path d="M1179.027,549a1.369,1.369,0,1,0,1.937,0h0A1.37,1.37,0,0,0,1179.027,549Z"/><circle cx="1.369" cy="1.369" r="1.369" transform="translate(1166.038 536.011)"/><circle cx="1.369" cy="1.369" r="1.369" transform="translate(1161.843 531.815)"/><circle cx="1.369" cy="1.369" r="1.369" transform="translate(1164.747 545.692)"/><circle cx="1.369" cy="1.369" r="1.369" transform="translate(1168.943 549.888)"/><circle cx="1.369" cy="1.369" r="1.369" transform="translate(1173.138 554.083)"/><path d="M1162.89,543.834a1.369,1.369,0,1,0-1.937,0h0A1.37,1.37,0,0,0,1162.89,543.834Z"/><circle cx="1.369" cy="1.369" r="1.369" transform="translate(1156.357 537.302)"/><circle cx="1.369" cy="1.369" r="1.369" transform="translate(1159.584 550.855)"/><circle cx="1.369" cy="1.369" r="1.369" transform="translate(1163.78 555.051)"/><circle cx="1.369" cy="1.369" r="1.369" transform="translate(1167.974 559.246)"/><circle cx="1.369" cy="1.369" r="1.369" transform="translate(1155.389 546.66)"/><circle cx="1.369" cy="1.369" r="1.369" transform="translate(1151.194 542.465)"/><circle cx="1.369" cy="1.369" r="1.369" transform="translate(1154.421 556.019)"/><path d="M1159.017,560.615a1.37,1.37,0,1,0,1.937,0h0A1.37,1.37,0,0,0,1159.017,560.615Z"/><circle cx="1.369" cy="1.369" r="1.369" transform="translate(1162.811 564.41)"/><circle cx="1.369" cy="1.369" r="1.369" transform="translate(1150.225 551.824)"/><circle cx="1.369" cy="1.369" r="1.369" transform="translate(1146.03 547.628)"/></g></g></g></svg>